<svg viewBox="0 0 1050 1050" xmlns="http://www.w3.org/2000/svg">
  <defs/>
  <defs>
    <clipPath id="a">
      <path d="M773.49 562.85h137.58V712.3H773.49z" fill="none"/>
    </clipPath>
    <clipPath id="b">
      <path d="M635.91 536.04h137.58v149.45H635.91z" fill="none"/>
    </clipPath>
  </defs>
  <path
    d="M191.13 71.72A12.81 12.81 0 00196.74 61c0-6.89-4.33-9.06-7.68-9.06a5.56 5.56 0 00-4.43 2.06c-1.48 1.58-2.26 3.74-3.74 7.87-1.77 5.13-3.55 9.95-6.6 13.3-2.66 3-7.09 5.61-13.78 5.61-12.81 0-21.57-9.25-21.57-22.84 0-12.11 7.38-19.21 12.41-22.65l8 8.37a15.4 15.4 0 00-8.76 13.79c0 5.81 3.54 10.14 9.06 10.14a7.65 7.65 0 005.88-2.59c2.26-2.46 3.54-6.41 4.82-10.15 1.18-3.44 2.76-7.58 5.71-10.93 1.87-2.16 5.52-5.22 12.21-5.22 9.66 0 19.31 6.51 19.31 21.08a25.28 25.28 0 01-7.68 18.61zM195.07 124.81v-23.63H180.4v22.65h-11v-22.65h-17.95v23.63h-11V88.38h65.65v36.43zM142.78 181.25a34 34 0 01-3.84-16.25c0-11.52 3.94-18.51 9.16-24 7.28-7.58 15.46-10.53 25.11-10.53 11.91 0 20.48 4.92 25.7 10.53 6.21 6.6 8.67 14.78 8.67 24.13a33 33 0 01-4 16.15h-15A21.14 21.14 0 00196 165.4c0-13.2-10.84-21.77-23-21.77-14.57 0-22.45 11.23-22.45 22.26a19.88 19.88 0 007.19 15.36zM173.21 256.4c-20 0-34.27-14.37-34.27-35s14.28-35.06 34.27-35.06 34.37 14.37 34.37 35.06-14.38 35-34.37 35zm0-13.19c13.29 0 22.75-9.07 22.75-21.86s-9.46-21.87-22.75-21.87-22.65 9.06-22.65 21.87 9.35 21.86 22.65 21.86zM140.42 264.59h65.68v8.87l-43.82 40h43.82v12.8h-65.68v-8.86l43.92-40h-43.92zM206.1 354.72c0 9.16-1 17.13-6.4 24.42-6 8-15.56 12.6-26.49 12.6s-20.39-4.53-26.49-13.19c-5.42-7.68-6.3-14.87-6.3-24v-16.97h65.68zm-54.65-4.34v3.94c0 3.25.19 10.34 4.33 16.06 3.74 5.21 10.44 8.17 17.43 8.17s13.59-2.86 17.53-8.07 4.33-11.82 4.33-16.16v-3.94zM154.2 458.14v-26.49l-13.78-5.81V412l65.68 28.26v10.05l-65.68 27.47V464zm10.44-3.75l23.63-9.39-23.63-9.36zM140.42 481.79h65.68v8.86l-43.82 40h43.82v12.8h-65.68v-8.86l43.92-40h-43.92zM140.42 554.77h65.68v8.87l-43.82 40h43.82v12.8h-65.68v-8.86l43.92-40h-43.92zM206.1 640.57h-65.68v-12.8h65.68zM206.1 658.6L162 676.13l44.12 17.52v14l-65.68-27.76v-7.68l65.68-27.58zM195.07 748.12v-23.63H180.4v22.65h-11v-22.65h-17.95v23.63h-11v-36.43h65.65v36.43zM206.1 775.9c0 9.07-2.36 13.69-4.92 16.74a18.66 18.66 0 01-14.78 6.51c-6.4 0-12-2.57-15.46-7.68a18.34 18.34 0 01-2.85-7.19l-27.67 20.48v-16l26.39-17.53v-1.53h-26.39v-12.8h65.68zm-30.23-6.2v3.65c0 2.45.29 12.6 9.94 12.6s9.85-10.05 9.85-12.41v-3.84zM191.13 842.09a12.82 12.82 0 005.61-10.73c0-6.9-4.33-9.06-7.68-9.06a5.53 5.53 0 00-4.43 2.07c-1.48 1.57-2.26 3.74-3.74 7.87-1.77 5.13-3.55 10-6.6 13.3-2.66 3-7.09 5.61-13.78 5.61-12.81 0-21.57-9.25-21.57-22.85 0-12.11 7.38-19.2 12.41-22.64l8 8.36a15.42 15.42 0 00-8.76 13.79c0 5.81 3.54 10.15 9.06 10.15a7.63 7.63 0 005.91-2.57c2.26-2.46 3.54-6.4 4.82-10.14 1.18-3.45 2.76-7.58 5.71-10.93 1.87-2.16 5.52-5.22 12.21-5.22 9.66 0 19.31 6.5 19.31 21.08a25.28 25.28 0 01-7.68 18.61zM154.2 897.64v-26.48l-13.78-5.82v-13.88l65.68 28.26v10l-65.68 27.47v-13.74zm10.44-3.74l23.63-9.35-23.63-9.36zM206.1 940.3c0 9.06-2.36 13.69-4.92 16.74a18.68 18.68 0 01-14.78 6.5c-6.4 0-12-2.56-15.46-7.68a18.21 18.21 0 01-2.85-7.19l-27.67 20.48V953.2l26.39-17.53v-1.57h-26.39v-12.8h65.68zm-30.23-6.2v3.64c0 2.46.29 12.61 9.94 12.61s9.85-10.05 9.85-12.41v-3.84zM170.45 989.06l35.65-22.55v15.16l-22.85 14.09 22.85 14.08V1025l-35.65-23.14h-30v-12.8zM566.58 481.41c4.59 0 8-1.14 8-3.06 0-1.15-.76-2.68-3.45-4.21l-19.92-13.41-12.64 14.56H375.36v-44.82h65.5c6.13 0 10-1.15 10-3.06 0-1.15-.77-2.69-3.45-4.22l-22.25-13.79-12.65 15.32h-37.15v-35.23c1.91-.77 13-3.45 13-6.52 0-1.53-2.3-3.06-8.81-4.59l-23.75-6.13 2.3 17.62v34.85h-47.47l-24.14-1.14 4.6 7.66 25.28-.77h41.75v44.82h-54L280 474.14l4.6 8.42 25.28-1.15zM338.06 251.08h47.97v4.19h-47.97zM373.4 75.62H243.12v-7.36l130.28 2.29v5.07zM428.28 801.63h90.33v5.34h-90.33z"/>
  <path
    d="M428.28 797.23h90.33v5.34h-90.33zM351.8 427.41h13.97v50.99H351.8zM617.21 284.54H512.58v-30.93H412.44v-4.19h104.64v30.93h100.13v4.19zM522.18 958.28a32.83 32.83 0 00-32.83 32.83 32.83 32.83 0 0032.82 32.89A32.83 32.83 0 00555 991.11a32.83 32.83 0 00-32.82-32.83zm0 55.74a22.91 22.91 0 010-45.82 22.91 22.91 0 010 45.82zM221.28 310.51c6.46 21.21 10.11 27.44 11.62 29.27.75-1.1 2.15-3.86 3.77-10.52l.5-2.06 2-.58c61.92-17.68 110.67-36.36 145.12-55.6a980.88 980.88 0 01-133.88 35.19 255.48 255.48 0 01-29.13 4.3zM266.4 70.6h106.05a7.63 7.63 0 00.95 0c-.55-.92-2.17-3-6.84-7-11.47-9.54-15.6-12.13-17-12.82-1.28.81-5.15 4-15.22 16.26l-1.1 1.33H266.4a197.75 197.75 0 01-24.62-1.52l1.5 5.61a186 186 0 0123.12-1.86zM492.34 97a6.86 6.86 0 005.22-2.42 10.48 10.48 0 002.91-7.58c0-5.8-3.15-11.77-9.38-17.79-7.11-7-16.78-12.56-28.81-16.57a99.92 99.92 0 0120.77 35c3.42 9.36 7.84 9.36 9.29 9.36zM294.21 202.07h64.58v9h-64.58z"/>
  <path
    d="M395.85 200.71l-.35-.33-.14-.15a63.2 63.2 0 00-3.55-3.07c-14.26-11.75-19.61-15.43-21.58-16.57-1.81 1.28-6.65 5.55-18.79 19.61l-79.37-.07a4.4 4.4 0 01-4.39-4.4v-13h-16.91v2.74h12.7v32.68h4.19v-6.85a5.51 5.51 0 015.51-5.51h127.9zM267.04 667.59h44.48v6.13h-44.48zM428.79 276.43h29.84v6.13h-29.84zM487 393.16h29.84v6.13H487zM523.64 326.17h29.84v6.13h-29.84zM255.51 494.75h29.84v6.13h-29.84zM298.37 520.72v2.79h7.12v6.13h-7.12v84.25h19.98v-93.17h-19.98z"/>
  <path
    d="M539.85 340.13a22.52 22.52 0 01-5.52-14.68c0-.34 0-.89.12-1.87a6.14 6.14 0 00-11.16-4.06c-3.1 4.34-4.6 4.34-6.07 4.34-2.32 0-6-1.1-15.88-9.32a184.19 184.19 0 01-28.84-32h-12.72v-6.13h8.57A196.09 196.09 0 01444 221.75c-.81-2.7-1.57-5.46-2.31-8.26a6.16 6.16 0 00-5.92-4.59h-3.05a6.13 6.13 0 01-6.13-6.13V149.6h3.61c-.49-4.51-.93-9.06-1.31-13.7l-.32-4H537.6a5.4 5.4 0 001.19-.11c-.18-.51-1.25-2.67-7.14-7.52-6.91-6-11.42-9.55-14.32-11.6a6 6 0 00-7.82.67 338.88 338.88 0 00-13.67 15.06l-1.09 1.26h-66.43l-.22-3.42c-1.25-19.42-1.88-47.06-1.88-82.15V41.7l2.24-.93c10.36-4.32 11.2-6.73 11.22-6.73 0-.37-.87-1-2.49-1.57-3.11-1-10.21-2.26-21.18-3.82a6.14 6.14 0 00-7 6.42c.51 8 .77 17.51.77 28.46a1562.5 1562.5 0 002.24 62.32l.22 3.86h-1V132h1.3l.26 3.36q.3 3.84.65 7.6a6.18 6.18 0 01-6.2 6.69 6.12 6.12 0 00-6 6.12v47.05a6.13 6.13 0 006.13 6.13h11.43a6.15 6.15 0 015.95 4.72q2.13 8.83 4.58 17.12A214.54 214.54 0 00462 298.61c14.85 20.46 32.31 36.87 51.88 48.79 11.18 6.82 17.14 8.25 20.17 8.25 6.26 0 8.7-2.33 8.7-8.32a10.61 10.61 0 00-2.9-7.2z"/>
  <path
    d="M535.59 129.45H226.7a3.17 3.17 0 01-3.16-3.16 3.15 3.15 0 00-3.16-3.16h-7.86v10.51h328.13l-2.65-3.09a3.16 3.16 0 00-2.41-1.1zM440.86 527.38c0-1.91-1.53-4.21-5.75-7.66L419 507.85l-10.7 12.25h-78.2a5.34 5.34 0 01-5.34-5.34v-5.56h-26.39v14.31h7.12v6.13h-7.12v28.86h1.15v38.21c0 3.45-.39 6.51-.39 9.2 0 5 .77 8 5.36 8 .39 0 13 0 13-9.58 0-3.45-.77-7.66-.77-13.79h96.18c0 5-.39 8.81-.39 11.88 0 3.83.77 6.13 3.45 6.13a17 17 0 003.83-.77c8.81-1.91 10.73-5 10.73-10.34 0-2.68-.39-6.13-.77-10.73v-55.12c3.83 0 11.11-.38 11.11-4.21zm-28.35 57.07h-95.76v-26h8v-26.87a5.35 5.35 0 015.34-5.35h82.41z"/>
  <path
    d="M514 490.51a18 18 0 01-18-18v-98.35c7.28 0 14.55-1.53 14.55-5 0-1.91-1.91-4.59-6.89-8L484.53 347l-12.26 15.7H269.64l-22.22-11.9 2.3 27.58v2.37h-14.6a3.17 3.17 0 00-3.17 3.17v67.68a3.17 3.17 0 003.17 3.17h10.51a4.18 4.18 0 014.16 4.15c.5 60-3.74 102.66-15.25 136.53h3v24.29a16.55 16.55 0 012.08-7.93c15.35-28 22.27-57.16 25.86-89.41 2.29-37.54 3.06-57.46 3.06-72.78V368.8h210.24v24.36h9.63v6.12h-9.63V505.1a18 18 0 0118 18v26.4a17.08 17.08 0 01-17.08 17.08h-.94v58.48c-.76 5.36-3.45 6.51-14.17 6.51-8.05 0-43.28-3.83-50.56-4.6v5.75c34.85 8.81 38.68 11.87 40.22 16.09l3.06 12.25c27.2-5.74 38.31-15.7 38.69-35.62v-2.35A17.07 17.07 0 01513.09 606h6.06V490.51zM261.29 452h-3.06a4.15 4.15 0 01-4.15-4.15v-61.08a4.15 4.15 0 014.15-4.16h3.06z"/>
  <path
    d="M593.15 802.05l-23-15.71-15.32 16.48H428.26v13.13H383V780.3a26.34 26.34 0 0126.3-24.64h74.59v-7.13H501c4.59 0 8-1.15 8-3.07 0-1.15-1.15-2.29-3.45-4.21l-24.85-16.09-10.23 10h-195c8.1-10.42 29.42-39.73 44.95-61.46h-8.86v-6.12h13.23a836.77 836.77 0 0011.92-17.06c12.26-1.15 17.62-2.68 17.62-5 0-1.92-2.68-4.21-7.65-6.9l-18.78-9.95c-16 28.82-43.24 69.39-70.19 106.47l-2.2 3.49L252 743a1434.04 1434.04 0 01-28.44 37.43v12.44c10.34-11.53 20.52-24.06 31.39-37.16h110.83v60.28H281.9l-18.77-8.81 1.53 21.82v72.77h-41.37l-24.13-.77 4.59 8 25.25-1.12h64.47a8.69 8.69 0 018.69 8.69v18.55h7.69v-18.55a8.69 8.69 0 018.69-8.69h47.2v104.57c-.38 8.42-.38 11.1 3.83 11.1 4.6 0 14.18-3.44 14.18-9.57 0-1.53-.77-7.28-.77-8.43v-97.67h55.72v-13.13h83.65c3.83 0 6.9-1.15 6.9-3.07 0-1.15-.77-2.68-3.45-4.21l-22.6-17.24-16.47 18.39h-55.68v13.12H383v-79.67h52.92v-13.13h152.63c4.6 0 8-1.14 8-3.06.04-.77-1.11-2.3-3.4-3.83zM302.2 876v25.76h-10.56v-79.69h10.56zm63.58 25.76h-55.89v-79.69h55.89zM226.29 182.48A2.15 2.15 0 01225 182v6.09h66v-5.64zM426.55 149.29h29.57v5.59h-29.57zM584.11 45.29l27.76 24.12v16.15l-30.33-27.77L546.19 87V70.1l29.45-23.34-1.48-1.47h-28V32.48h65.68v12.81z"/>
  <path
    d="M560 130.38v-26.49l-13.79-5.81V84.2l65.68 28.26v10L546.19 150v-13.81zm10.44-3.74l23.63-9.36-23.63-9.35zM600.85 188.89v-22.06h-14.68v20.69h-11v-20.69h-28.98V154h65.68v34.86zM660.87 448.18c3.83 0 6.89-.76 6.89-2.29 0-1.15-.76-2.3-2.67-3.84l-15.71-13.78-15.71 13.78h-57.45l-20.3-.38 1.14 6.9 19.16-.39zM562.43 542.8l23-.39h54.78c3.06 0 6.12-.77 6.12-2.68 0-.76-.76-2.3-3.06-4.21l-13.41-11.88-13 12.64H585l-24.52-.38zM694.8 527.57c3.45 0 6.51-5.36 6.51-12.26 0-19.15-32.17-49-48.64-59l-2.3 2.3c17.62 18.77 31.79 44.81 34.47 54 2.68 11.13 6.51 14.96 9.96 14.96zM639.42 507.77c3.45 0 5.75-.38 5.75-2.29 0-1.15-1.15-2.69-3.83-5.37L626 487.47l-13.79 14.18h-29.1l-55.63-.77 1.92 7.28 54.1-.39z"/>
  <g clip-path="url(#a)">
    <path
      d="M836.69 584.93l-13-12.64L811 584.17h-85.8l-22.6-13.41 1.53 18v101.51c0 2.68-.38 5-.38 7.28 0 1.91.38 3.44 2.68 3.44 1.15 0 15.71-3.83 15.71-10.72 0-1.15-.77-7.66-.77-8.81h95.38c0 2.68-.38 14.17-.38 16.47 0 1.91.38 3.45 2.68 3.45.76 0 16.47-2.68 16.47-12.26 0-3.06-1.15-6.89-1.53-12.26v-62.78h-17.22v15.67h-95.38v-39.46h95.38v17.41H834v-9c6.51.38 10.34-.77 10.34-3.45.01-1.89-2.67-5.34-7.65-10.32zm-19.92 50.56v39.84h-95.38v-39.84z"/>
  </g>
  <g clip-path="url(#b)">
    <path
      d="M823.66 553.31L811 565.19h-85.8l-22.6-13.41 1.53 18v101.51c0 2.68-.38 5-.38 7.28 0 1.91.38 3.44 2.68 3.44 1.15 0 15.71-3.83 15.71-10.72 0-1.15-.77-7.66-.77-8.81h95.38c0 2.68-.38 14.17-.38 16.47 0 1.91.38 3.45 2.68 3.45.76 0 16.47-2.68 16.47-12.26 0-3.06-1.15-6.89-1.53-12.26v-78.14c6.51.38 10.34-.77 10.34-3.45 0-1.91-2.68-5.36-7.66-10.34zm-6.89 103h-95.38v-39.8h95.38zm0-45.58h-95.38v-39.42h95.38z"/>
  </g>
  <path
    d="M770.21 675.33h6.08v6.08h-6.08zM770.45 558.35v.65a6.21 6.21 0 01-6.21 6.21v6.12a6.21 6.21 0 016.21 6.21v12.77h6.08v-31.96zM737.45 356.77v6a7.41 7.41 0 01-12 5.86 225.62 225.62 0 00-45.79-27.52l-3 3.65c12.16 13.38 34.05 36.48 43.78 52.9 5.47 11.55 12.16 16.41 17 16.41h16.43v-57.3z"/>
  <path
    d="M889.75 538.58L874 523.26l-16.47 16.47h-42.09a2457.63 2457.63 0 0151.71-67.8 23.73 23.73 0 005 .38c4.21 0 6.51-1.14 6.51-2.67 0-1.92-2.3-4.22-7.28-6.52l-16.08-6.89c-14.18 25.28-30.65 58.22-45.2 83.5H807v-98.06c5-1.91 7.66-3.83 7.66-5.36 0-.38-.38-.77-.76-1.15h59.75c5 0 8-.77 8-2.3 0-1.15-1.14-2.68-3.83-4.59l-17.62-14.94L846.47 429h-47.12c13-14.56 24.9-28.73 34.09-41 7.28-.39 11.88-1.15 11.88-3.07q0-2.3-9.2-5.74l-13.4-3.83c-10 18.38-20.69 39.06-29.5 53.62h-95.76l-28.35-.76 1.16 7.66 27.19-.77h16.06v104.62H691l-31.41-1.15 3.06 7.66 30.64-.38h32.08v23.67h5.58v-23.67h153.82c4.21 0 8-1.15 8-3.06.04-1.16-1.1-2.69-3.02-4.22zm-170.64 1.3V434.93h6.21v105zm70.66-.15H750.7v-98.06c4.6-1.53 7.28-3.06 7.28-4.59a2.53 2.53 0 00-1.53-1.92h33.32zM705.75 71.94h66.53v7.36h-66.53zM629.68 650.08h-82.51v25.66a10.9 10.9 0 01-10.9 10.9H471v5.92h82.51V666.9a10.9 10.9 0 0110.86-10.9h65.31zM695.42 129.19l-19.15-9.58c-20.84 45.53-72.08 119.24-85.28 138V270c23.47-21.2 43-45.51 57.32-64.94l17.23-9.58c4.21-.38 9.58-.76 9.58-3.44 0-1.92-3.07-5-11.88-9.58a789.04 789.04 0 0025.28-43.28c8.81.38 14.18-1.15 14.18-3.45 0-1.95-2.3-3.86-7.28-6.54z"/>
  <path
    d="M750.46 407.89h19.25v6.13h-19.25zM883.8 65.6L859.67 48l-19.15 19.14h-62.44V41.47c7.66-2.3 10.73-4.21 10.73-6.13s-2.69-3.83-8-5l-21.45-4.21 1.53 15.71v25.3h-80.1V38c6.89-1.54 10-3.45 10-5s-3.07-3.44-8.81-4.59L662.4 25l1.15 15.7v26.44l-61.5-.76v6.11l61.5.77v28c0 3.44-.38 6.13-.38 8.42 0 2.69.76 4.22 3.45 4.22 3.06 0 14.55-2.3 14.55-6.9 0-1.53-.38-3.83-.38-7.27V73.26h80.05v26.05c0 3.83-.76 7.28-.76 9.58s.76 3.83 3.45 3.83c1.15 0 15.32-1.92 15.32-8 0-1.53-.77-3.83-.77-7.28V73.26h101.51c5.36-.38 8-1.15 8-3.06.04-1.15-1.1-2.68-3.79-4.6zM658.06 699.3h29.84v6.13h-29.84zM746.8 164.48h29.84v6.38H746.8zM610.57 204.38h29.84v6.38h-29.84zM643.41 278.16h29.84v6.38h-29.84zM554.55 278.16h62.73v6.38h-62.73z"/>
  <path
    d="M666.63 340.54a13 13 0 01-13-13v-60.18a7.23 7.23 0 017.23-7.23h5.73v-49.37h-8v-6.38h8V189.8H641v63.1a7.23 7.23 0 01-7.23 7.23v18.1h6v6.38h-6v55.93a7.23 7.23 0 017.23 7.23v37.61a13 13 0 01-12.94 12.94h-21.82a6.32 6.32 0 01-5.34-2.94 52.47 52.47 0 00-8.56-10.4l-15.7 14.17c-1.92 1.54-2.69 2.68-2.69 3.45 0 1.92 3.07 2.68 6.9 2.68h92.61v-7h-6.83zM822.54 607.7h29.84v6.38h-29.84zM877.29 326.46c.77-18.77 1.15-34.48 1.53-54.78h-5.74c-4.22 31-6.51 54.39-19.15 57.46-3.83 1.53-23 1.91-42.52 1.91h-17.1a17.84 17.84 0 01-17.78-17.86v-82.87h-18.75a7.39 7.39 0 014.07-6.63c21.72-10.94 57.66-31 87.86-49.3 6.13.76 10.73 1.53 13.79 1.53 4.21 0 5.75-.77 5.75-2.3s-1.92-3.45-5.37-6.13l-18.76-14.17c-32.56 27.58-70.87 55.16-87.34 65.88v-77c8-1.91 12.26-3.83 12.26-5.36 0-1.92-3.83-3.45-12.26-5.75l-18.78-4.2 1.54 21.11v16.8H750v6.13h-9.47v150.55c0 15.32 4.22 20.68 18 23 7.27 1.53 32.17 1.92 56.69 1.92s73.16-.39 73.16-11.11c.02-2.7-3.81-5.77-11.09-8.83zm-117.51-10.6h-8.16v-72.73h8.16a6.29 6.29 0 016.29 6.29v60.15a6.29 6.29 0 01-6.29 6.29zM669 570.41l-15.71-13-12.64 13.4h-34.52L585.44 557v114.92c-.38 5-1.53 9.19-1.53 12.25 0 2.69.77 4.22 3.83 4.22 1.15 0 15.71-1.53 15.71-11.11 0-2.68-.39-6.13-.77-10.34v-10.73h46l-.74 43.09h13.57v6.13h-13.7l-.35 20.29c0 4.6-1.14 9.2-1.14 12.26s.76 4.6 4.21 4.6c7.66 0 14.93-3.83 14.93-10.73 0-3.06-.76-6.51-.76-10.34l1.18-140.37c3.07.38 9.58.76 9.58-2.69 0-1.53-1.91-4.59-6.46-8.04zm-20.3 79.67h-46v-73.16h46zM234.54 595.45h2.95v36.42h-2.95z"/>
</svg>
